<svg width="176.718" height="76.673" viewBox="0 0 176.718 76.673" xmlns="http://www.w3.org/2000/svg"><g id="svgGroup" stroke-linecap="round" fill-rule="evenodd" font-size="9pt" stroke="#000" stroke-width="0.25mm" fill="none" style="stroke:#000;stroke-width:0.25mm;fill:none"><path d="M 0.121 73.291 L 12.231 27.686 A 19.392 19.392 0 0 1 12.411 27.027 Q 12.797 25.717 13.134 25.44 Q 13.527 25.115 14.163 25.099 A 2.653 2.653 0 0 1 14.233 25.098 L 18.334 25.098 A 3.093 3.093 0 0 1 19.051 25.173 Q 20.682 25.564 19.945 27.979 L 12.426 53.174 L 22.826 35.986 Q 25.854 30.957 29.54 28.027 Q 33.227 25.098 35.619 25.098 L 37.719 25.098 A 7.844 7.844 0 0 1 38.657 25.15 Q 39.135 25.208 39.529 25.329 A 3.232 3.232 0 0 1 40.234 25.635 A 2.118 2.118 0 0 1 40.808 26.158 Q 41.328 26.819 41.698 28.076 A 4.467 4.467 0 0 1 41.849 28.851 Q 42.05 30.674 41.137 33.692 L 36.059 52.393 L 45.629 35.889 A 36.553 36.553 0 0 1 48.012 32.243 Q 49.308 30.511 50.676 29.202 A 18.088 18.088 0 0 1 52.343 27.783 Q 55.417 25.483 57.685 25.153 A 5.118 5.118 0 0 1 58.422 25.098 L 60.522 25.098 A 7.844 7.844 0 0 1 61.46 25.15 Q 61.937 25.208 62.332 25.329 A 3.232 3.232 0 0 1 63.036 25.635 A 2.089 2.089 0 0 1 63.613 26.165 Q 64.032 26.706 64.344 27.644 A 9.685 9.685 0 0 1 64.477 28.076 A 4.638 4.638 0 0 1 64.62 28.842 Q 64.815 30.663 63.943 33.679 A 27.507 27.507 0 0 1 63.94 33.692 L 52.758 74.463 A 2.572 2.572 0 0 1 52.53 75.08 Q 52.155 75.778 51.38 75.866 A 2.057 2.057 0 0 1 51.147 75.879 L 45.922 75.879 A 1.241 1.241 0 0 1 45.473 75.805 Q 44.577 75.458 45.141 73.486 L 55.639 39.16 Q 56.308 36.859 56.404 35.902 A 2.869 2.869 0 0 0 56.42 35.62 A 1.568 1.568 0 0 0 56.392 35.308 Q 56.294 34.827 55.854 34.773 A 0.957 0.957 0 0 0 55.736 34.766 A 1.344 1.344 0 0 0 55.247 34.868 Q 54.838 35.028 54.354 35.441 A 6.439 6.439 0 0 0 54.101 35.669 Q 53.383 36.35 52.29 37.878 A 47.136 47.136 0 0 0 51.537 38.965 A 112.6 112.6 0 0 0 49.806 41.53 Q 48.939 42.851 48.012 44.332 A 189.766 189.766 0 0 0 47.387 45.337 A 394.007 394.007 0 0 1 46.175 47.286 Q 44.499 49.965 42.235 53.506 A 1202.159 1202.159 0 0 1 41.479 54.688 Q 38.487 59.354 37.157 61.545 A 63.444 63.444 0 0 0 36.645 62.402 A 187.877 187.877 0 0 0 34.061 66.706 Q 31.466 71.173 29.955 74.463 A 3.766 3.766 0 0 1 29.616 75.074 Q 29.056 75.879 28.246 75.879 L 23.119 75.879 A 1.241 1.241 0 0 1 22.671 75.805 Q 21.775 75.458 22.338 73.486 L 32.836 39.16 Q 33.506 36.859 33.601 35.902 A 2.869 2.869 0 0 0 33.617 35.62 A 1.568 1.568 0 0 0 33.589 35.308 Q 33.491 34.827 33.052 34.773 A 0.957 0.957 0 0 0 32.934 34.766 A 1.344 1.344 0 0 0 32.444 34.868 Q 32.035 35.028 31.551 35.441 A 6.439 6.439 0 0 0 31.298 35.669 Q 30.58 36.35 29.488 37.878 A 47.136 47.136 0 0 0 28.735 38.965 Q 26.83 41.699 24.145 46.045 Q 21.459 50.391 17.358 56.787 Q 9.783 68.342 6.538 74.247 A 81.982 81.982 0 0 0 6.42 74.463 A 2.898 2.898 0 0 1 5.734 75.312 Q 5.047 75.879 4.027 75.879 L 1.244 75.879 Q 0.781 75.879 0.425 75.375 A 2.522 2.522 0 0 1 0.243 75.073 A 2.16 2.16 0 0 1 0 74.07 Q 0 73.812 0.057 73.541 A 3.088 3.088 0 0 1 0.121 73.291 Z M 176.586 2.295 L 157.592 68.262 A 24.092 24.092 0 0 0 159.88 66.163 Q 160.999 65.006 162.153 63.566 A 51.2 51.2 0 0 0 163.598 61.67 A 3.449 3.449 0 0 1 163.967 61.202 Q 164.909 60.214 166.088 60.986 L 168.481 62.598 A 3.24 3.24 0 0 1 168.913 62.937 Q 169.919 63.89 168.969 65.088 A 74.696 74.696 0 0 1 165.989 68.374 Q 164.52 69.895 163.146 71.107 A 34.474 34.474 0 0 1 161.425 72.534 A 19.923 19.923 0 0 1 155.286 75.724 A 23.961 23.961 0 0 1 153.295 76.27 A 2.61 2.61 0 0 1 153.053 76.308 Q 151.845 76.442 151.488 75.195 L 149.584 69.678 A 27.634 27.634 0 0 1 147.388 72.373 A 21.616 21.616 0 0 1 145.336 74.317 A 14.767 14.767 0 0 1 144.265 75.128 Q 142.736 76.172 141.674 76.172 L 141.479 76.172 Q 139.588 76.172 136.471 72.924 A 30.009 30.009 0 0 1 136.425 72.876 A 13.231 13.231 0 0 1 134.461 70.278 A 9.513 9.513 0 0 1 133.178 65.772 Q 133.08 57.959 137.597 45.459 Q 142.113 32.959 146.044 29.077 Q 149.878 25.291 155.501 25.291 A 16.904 16.904 0 0 1 155.785 25.293 Q 159.106 25.293 162.084 27.1 L 168.774 2.197 Q 169.408 0 171.801 0 L 174.389 0 A 5.347 5.347 0 0 1 175.21 0.057 Q 177.162 0.362 176.586 2.295 Z M 72.387 36.035 A 58.19 58.19 0 0 0 65.697 61.377 Q 65.537 66.088 66.697 69.39 A 11.196 11.196 0 0 0 69.506 73.877 A 11.43 11.43 0 0 0 71.28 75.317 A 7.932 7.932 0 0 0 75.414 76.66 Q 84.399 77.002 89.721 67.774 A 54.316 54.316 0 0 0 97.826 40.381 Q 98.106 34.781 97.107 31.515 A 8.928 8.928 0 0 0 96.117 29.297 A 12.835 12.835 0 0 0 95.144 27.863 A 9.014 9.014 0 0 0 88.305 24.268 A 15.335 15.335 0 0 0 87.995 24.265 Q 78.536 24.265 72.387 36.035 Z M 105.883 36.035 A 58.19 58.19 0 0 0 99.194 61.377 Q 99.033 66.088 100.193 69.39 A 11.196 11.196 0 0 0 103.002 73.877 A 11.43 11.43 0 0 0 104.776 75.317 A 7.932 7.932 0 0 0 108.91 76.66 Q 117.895 77.002 123.217 67.774 A 54.316 54.316 0 0 0 131.322 40.381 Q 131.602 34.781 130.603 31.515 A 8.928 8.928 0 0 0 129.613 29.297 A 12.835 12.835 0 0 0 128.64 27.863 A 9.014 9.014 0 0 0 121.801 24.268 A 15.335 15.335 0 0 0 121.491 24.265 Q 112.033 24.265 105.883 36.035 Z M 82.738 65.381 A 46.354 46.354 0 0 0 89.916 41.455 A 87.2 87.2 0 0 0 89.925 40.759 Q 89.971 35.485 89.308 33.601 A 4.32 4.32 0 0 0 89.306 33.594 A 3.272 3.272 0 0 0 88.666 32.48 Q 88.062 31.809 87.08 31.618 A 4.304 4.304 0 0 0 86.352 31.543 A 4.584 4.584 0 0 0 86.252 31.542 Q 84.064 31.542 82.25 33.643 Q 80.902 35.204 79.605 37.641 A 38.76 38.76 0 0 0 78.637 39.6 A 44.471 44.471 0 0 0 74.789 51.22 A 59.395 59.395 0 0 0 73.803 60.401 A 45.661 45.661 0 0 0 73.793 61.134 Q 73.746 69.397 76.928 69.678 Q 79.809 69.776 82.738 65.381 Z M 116.235 65.381 A 46.354 46.354 0 0 0 123.412 41.455 A 87.2 87.2 0 0 0 123.421 40.759 Q 123.467 35.485 122.804 33.601 A 4.32 4.32 0 0 0 122.802 33.594 A 3.272 3.272 0 0 0 122.162 32.48 Q 121.558 31.809 120.576 31.618 A 4.304 4.304 0 0 0 119.848 31.543 A 4.584 4.584 0 0 0 119.748 31.542 Q 117.56 31.542 115.746 33.643 Q 114.398 35.204 113.102 37.641 A 38.76 38.76 0 0 0 112.133 39.6 A 44.471 44.471 0 0 0 108.285 51.22 A 59.395 59.395 0 0 0 107.299 60.401 A 45.661 45.661 0 0 0 107.289 61.134 Q 107.242 69.397 110.424 69.678 Q 113.305 69.776 116.235 65.381 Z M 160.57 32.666 A 14.44 14.44 0 0 0 158.785 31.814 Q 157.134 31.17 155.687 31.17 A 5.779 5.779 0 0 0 152.245 32.276 Q 149.547 34.206 147.04 39.948 A 55.883 55.883 0 0 0 145.849 42.92 A 152.742 152.742 0 0 0 143.793 48.828 Q 142.275 53.516 141.405 57.422 Q 140.14 63.104 140.853 65.598 A 4.193 4.193 0 0 0 141.015 66.065 Q 141.921 68.231 143.889 67.315 A 4.726 4.726 0 0 0 144.311 67.09 Q 148.952 64.092 152.66 56.091 A 53.062 53.062 0 0 0 152.734 55.933 A 85.348 85.348 0 0 0 155.104 50.167 Q 157.751 43.073 160.57 32.666 Z" vector-effect="non-scaling-stroke"/></g></svg>